<svg xmlns="http://www.w3.org/2000/svg" width="60" height="60" fill="none" viewBox="0 0 60 60"><path fill="#f4780a" d="m4 53.962 6.928 4L19.565 43H10.33z"/><path fill="#00a1e9" d="M10.33 43h9.235l4.62-8h-9.238z"/><path fill="#b50420" d="M0 43h10.33l4.617-8H0z"/><path fill="#fdfe00" d="M19.565 43h20.26l-4.618-8H24.185z"/><path fill="#a31c91" d="M39.825 43h9.237l-4.619-8h-9.236z"/><path fill="#64c732" d="m48.464 57.962 6.928-4L49.062 43h-9.237z"/><path fill="#039b48" d="M49.063 43H60v-8H44.443z"/><path fill="#272c88" d="M35.207 35h9.236l-10.13-17.546-4.618 8z"/><path fill="#f1211d" d="m24.185 35 5.51-9.546-4.618-8L14.947 35z"/><path fill="#980204" d="M34.314 17.454 40.927 6 34 2l-4.305 7.455z"/><path fill="#030303" d="m25.077 17.454 4.618 8 4.618-8-4.618-7.999z"/><path fill="#f8ab05" d="m25.077 17.454 4.618-7.999L25.392 2l-6.928 4z"/></svg>